:FULLY-SPECIFIED
:FORCE-ALL-JOINTS-BE-3DOF
:DEGREES
815
root 2.62061 16.4396 23.0733 -14.4191 52.4907 347.651
lfemur -26.8755 10.6188 -16.224
ltibia 44.1273 0 0
lfoot -15.1477 0.804742 0
ltoes 19.3199 0 0
rfemur -34.0345 -14.5131 15.9595
rtibia 50.2403 0 0
rfoot -8.87832 -18.1979 0
rtoes -20.6504 0 0
lowerback 6.18036 2.09263 -2.38639
upperback 1.27752 2.54223 -2.71178
thorax -1.84988 1.28361 -1.35995
lowerneck -5.91676 -5.22552 0.605101
upperneck 1.70122 -7.13584 4.42406
head 1.76169 -3.42339 1.07269
lclavicle 1.16087e-15 6.29483e-15 0
lhumerus -47.2347 -16.3221 88.9055
lradius 64.8238 0 0
lwrist 17.077 0 0
lhand -8.83443 -1.24064 0
lfingers 7.12502 0 0
lthumb 17.0553 27.3911 0
rclavicle 1.16087e-15 6.29483e-15 0
rhumerus -38.8519 27.1313 -86.8975
rradius 68.4356 0 0
rwrist 3.92332 0 0
rhand -16.8141 -24.1672 0
rfingers 7.12502 0 0
rthumb 9.40686 -773.769 0
816
root 2.64908 16.4421 23.2022 -14.4244 51.7811 347.881
lfemur -26.593 10.5407 -16.2813
ltibia 43.9469 0 0
lfoot -14.9531 0.238086 0
ltoes 19.4102 0 0
rfemur -34.5621 -14.2758 15.8012
rtibia 50.189 0 0
rfoot -8.61745 -17.7896 0
rtoes -20.5207 0 0
lowerback 6.32421 2.01864 -2.42875
upperback 1.33978 2.43702 -2.68029
thorax -1.8674 1.23102 -1.29775
lowerneck -5.93349 -5.18482 0.641843
upperneck 1.82101 -7.0898 4.40376
head 1.80098 -3.39826 1.06001
lclavicle 1.02365e-15 6.47469e-15 0
lhumerus -46.9906 -16.4559 88.7366
lradius 64.6578 0 0
lwrist 17.1957 0 0
lhand -8.47878 -1.13088 0
lfingers 7.12502 0 0
lthumb 17.3969 27.4641 0
rclavicle 1.02365e-15 6.47469e-15 0
rhumerus -39.0858 26.5314 -86.1658
rradius 68.1019 0 0
rwrist 3.86616 0 0
rhand -16.6114 -24.2834 0
rfingers 7.12502 0 0
rthumb 9.60228 -773.875 0
817
root 2.67756 16.4446 23.3311 -14.4296 51.0716 348.112
lfemur -26.3105 10.4626 -16.3386
ltibia 43.7666 0 0
lfoot -14.7586 -0.32857 0
ltoes 19.5004 0 0
rfemur -35.0896 -14.0385 15.6428
rtibia 50.1377 0 0
rfoot -8.35657 -17.3812 0
rtoes -20.3909 0 0
lowerback 6.46807 1.94464 -2.47112
upperback 1.40204 2.33181 -2.64881
thorax -1.88492 1.17844 -1.23554
lowerneck -5.95021 -5.14412 0.678585
upperneck 1.9408 -7.04376 4.38347
head 1.84027 -3.37313 1.04733
lclavicle 8.86435e-16 6.65454e-15 0
lhumerus -46.7464 -16.5897 88.5676
lradius 64.4918 0 0
lwrist 17.3144 0 0
lhand -8.12313 -1.02113 0
lfingers 7.12502 0 0
lthumb 17.7384 27.5371 0
rclavicle 8.86435e-16 6.65454e-15 0
rhumerus -39.3198 25.9315 -85.4342
rradius 67.7682 0 0
rwrist 3.809 0 0
rhand -16.4088 -24.3996 0
rfingers 7.12502 0 0
rthumb 9.79769 -773.981 0
818
root 2.70603 16.4471 23.46 -14.4349 50.3621 348.342
lfemur -26.028 10.3845 -16.3959
ltibia 43.5862 0 0
lfoot -14.564 -0.895226 0
ltoes 19.5906 0 0
rfemur -35.6171 -13.8013 15.4845
rtibia 50.0864 0 0
rfoot -8.0957 -16.9729 0
rtoes -20.2611 0 0
lowerback 6.61192 1.87065 -2.51348
upperback 1.4643 2.2266 -2.61732
thorax -1.90244 1.12586 -1.17334
lowerneck -5.96693 -5.10342 0.715327
upperneck 2.06059 -6.99772 4.36317
head 1.87957 -3.34799 1.03466
lclavicle 7.49216e-16 6.83439e-15 0
lhumerus -46.5022 -16.7234 88.3987
lradius 64.3258 0 0
lwrist 17.4331 0 0
lhand -7.76749 -0.911373 0
lfingers 7.12502 0 0
lthumb 18.0799 27.61 0
rclavicle 7.49216e-16 6.83439e-15 0
rhumerus -39.5537 25.3316 -84.7025
rradius 67.4345 0 0
rwrist 3.75184 0 0
rhand -16.2061 -24.5157 0
rfingers 7.12502 0 0
rthumb 9.99311 -774.086 0
819
root 2.7345 16.4496 23.5889 -14.4402 49.6526 348.573
lfemur -25.7455 10.3064 -16.4532
ltibia 43.4058 0 0
lfoot -14.3695 -1.46188 0
ltoes 19.6808 0 0
rfemur -36.1447 -13.564 15.3261
rtibia 50.0351 0 0
rfoot -7.83483 -16.5645 0
rtoes -20.1314 0 0
lowerback 6.75577 1.79665 -2.55585
upperback 1.52656 2.12139 -2.58584
thorax -1.91996 1.07327 -1.11113
lowerneck -5.98366 -5.06272 0.752069
upperneck 2.18038 -6.95168 4.34287
head 1.91886 -3.32286 1.02198
lclavicle 6.11997e-16 7.01424e-15 0
lhumerus -46.258 -16.8572 88.2297
lradius 64.1598 0 0
lwrist 17.5518 0 0
lhand -7.41184 -0.801618 0
lfingers 7.12502 0 0
lthumb 18.4214 27.683 0
rclavicle 6.11997e-16 7.01424e-15 0
rhumerus -39.7876 24.7317 -83.9708
rradius 67.1007 0 0
rwrist 3.69469 0 0
rhand -16.0034 -24.6319 0
rfingers 7.12502 0 0
rthumb 10.1885 -774.192 0
820
root 2.76298 16.4521 23.7178 -14.4455 48.943 348.803
lfemur -25.463 10.2283 -16.5106
ltibia 43.2254 0 0
lfoot -14.1749 -2.02854 0
ltoes 19.771 0 0
rfemur -36.6722 -13.3267 15.1678
rtibia 49.9837 0 0
rfoot -7.57396 -16.1562 0
rtoes -20.0016 0 0
lowerback 6.89963 1.72266 -2.59821
upperback 1.58882 2.01618 -2.55435
thorax -1.93748 1.02069 -1.04893
lowerneck -6.00038 -5.02202 0.788811
upperneck 2.30017 -6.90564 4.32258
head 1.95815 -3.29772 1.0093
lclavicle 4.74778e-16 7.1941e-15 0
lhumerus -46.0138 -16.991 88.0608
lradius 63.9938 0 0
lwrist 17.6705 0 0
lhand -7.05619 -0.691864 0
lfingers 7.12502 0 0
lthumb 18.763 27.756 0
rclavicle 4.74778e-16 7.1941e-15 0
rhumerus -40.0215 24.1318 -83.2391
rradius 66.767 0 0
rwrist 3.63753 0 0
rhand -15.8008 -24.7481 0
rfingers 7.12502 0 0
rthumb 10.3839 -774.298 0
821
root 2.79145 16.4546 23.8467 -14.4507 48.2335 349.034
lfemur -25.1805 10.1502 -16.5679
ltibia 43.045 0 0
lfoot -13.9804 -2.59519 0
ltoes 19.8612 0 0
rfemur -37.1997 -13.0894 15.0094
rtibia 49.9324 0 0
rfoot -7.31309 -15.7478 0
rtoes -19.8719 0 0
lowerback 7.04348 1.64866 -2.64058
upperback 1.65108 1.91097 -2.52287
thorax -1.955 0.968104 -0.986725
lowerneck -6.0171 -4.98132 0.825553
upperneck 2.41996 -6.8596 4.30228
head 1.99744 -3.27259 0.996624
lclavicle 3.37559e-16 7.37395e-15 0
lhumerus -45.7696 -17.1247 87.8918
lradius 63.8278 0 0
lwrist 17.7892 0 0
lhand -6.70054 -0.582109 0
lfingers 7.12502 0 0
lthumb 19.1045 27.829 0
rclavicle 3.37559e-16 7.37395e-15 0
rhumerus -40.2555 23.532 -82.5075
rradius 66.4333 0 0
rwrist 3.58037 0 0
rhand -15.5981 -24.8642 0
rfingers 7.12502 0 0
rthumb 10.5794 -774.404 0
